<svg xmlns="http://www.w3.org/2000/svg" viewBox="0 0 48 48" role="img" aria-label="M&amp;R BarberHub">
  <defs>
    <linearGradient id="gold" x1="8" y1="6" x2="40" y2="42" gradientUnits="userSpaceOnUse">
      <stop stop-color="#F5CF65"/>
      <stop offset="1" stop-color="#D4AF37"/>
    </linearGradient>
  </defs>
  <rect width="48" height="48" rx="12" fill="url(#gold)"/>
  <g fill="#080808">
    <path d="M8 24c0-1.3 1-2.3 2.3-2.3h5.1c1.3 0 2.3 1 2.3 2.3v12.8c0 1.3-1 2.3-2.3 2.3h-5.1A2.3 2.3 0 0 1 8 36.8V24Z"/>
    <path d="M30.3 24c0-1.3 1-2.3 2.3-2.3h5.1c1.3 0 2.3 1 2.3 2.3v12.8c0 1.3-1 2.3-2.3 2.3h-5.1c-1.3 0-2.3-1-2.3-2.3V24Z"/>
    <path d="M16 30c0-1.6 1.3-2.9 2.9-2.9h10.2c1.6 0 2.9 1.3 2.9 2.9v3H16v-3Z"/>
    <rect x="18.2" y="34.8" width="11.6" height="4.5" rx="1.5"/>
    <path d="M20 41h8v3h-8z"/>
    <path d="M14 38h20v3H14z"/>
  </g>
  <g fill="none" stroke="#080808" stroke-linecap="round" stroke-linejoin="round" stroke-width="3.2">
    <path d="m15 10 18 18"/>
    <path d="m33 10-18 18"/>
    <circle cx="15" cy="28" r="3.3"/>
    <circle cx="33" cy="28" r="3.3"/>
  </g>
</svg>
