<svg xmlns="http://www.w3.org/2000/svg" viewBox="0 0 48 48" role="img" aria-label="M&amp;R BarberHub">
  <defs>
    <linearGradient id="gold" x1="8" y1="6" x2="40" y2="42" gradientUnits="userSpaceOnUse">
      <stop stop-color="#F5CF65"/>
      <stop offset="1" stop-color="#D4AF37"/>
    </linearGradient>
  </defs>
  <rect width="48" height="48" rx="12" fill="url(#gold)"/>
  <g fill="none" stroke="#080808" stroke-linecap="round" stroke-linejoin="round" stroke-width="3">
    <path d="M16 29h16"/>
    <path d="M15 19v15"/>
    <path d="M33 19v15"/>
    <path d="M18 34h12"/>
    <path d="M20 22h8c3 0 5 2 5 5v2H15v-2c0-3 2-5 5-5Z"/>
    <path d="M18 38h12"/>
    <path d="M20 29v9"/>
    <path d="M28 29v9"/>
    <path d="m18 10 12 12"/>
    <path d="m30 10-12 12"/>
    <circle cx="16" cy="8" r="3"/>
    <circle cx="32" cy="8" r="3"/>
  </g>
</svg>
